<?xml version="1.0" encoding="UTF-8" standalone="no"?>
<svg
   viewBox="0 0 3119.4817 3119.4817"
   fill="none"
   x="0px"
   y="0px"
   version="1.1"
   id="svg13"
   width="3119.4817"
   height="3119.4817"
   xmlns="http://www.w3.org/2000/svg"
   xmlns:svg="http://www.w3.org/2000/svg">
  <defs
     id="defs13" />
  <path
     d="m 1663.7236,103.98271 c 0,-57.428094 -46.5531,-103.9827240625 -103.9827,-103.9827240625 -57.4297,0 -103.9827,46.5546300625 -103.9827,103.9827240625 v 103.98273 c 0,57.4281 46.553,103.98272 103.9827,103.98272 57.4296,0 103.9827,-46.55462 103.9827,-103.98272 z"
     fill="#000000"
     id="path1"
     style="fill:#ffffff;stroke-width:51.9914" />
  <path
     fill-rule="evenodd"
     clip-rule="evenodd"
     d="m 2183.6372,1559.7408 c 0,-344.5675 -279.3288,-623.89626 -623.8963,-623.89626 -344.5676,0 -623.89642,279.32876 -623.89642,623.89626 0,344.5676 279.32882,623.8964 623.89642,623.8964 344.5675,0 623.8963,-279.3288 623.8963,-623.8964 z m -623.8963,-415.9309 c 229.7134,0 415.9309,186.2175 415.9309,415.9309 0,229.7135 -186.2175,415.9309 -415.9309,415.9309 -229.7134,0 -415.9309,-186.2174 -415.9309,-415.9309 0,-229.7134 186.2175,-415.9309 415.9309,-415.9309 z"
     fill="#000000"
     id="path2"
     style="fill:#ffffff;stroke-width:51.9914" />
  <path
     fill-rule="evenodd"
     clip-rule="evenodd"
     d="M 3088.7029,1485.8923 2506.3996,908.67904 c -522.9291,-518.35442 -1370.3883,-518.35442 -1893.31742,0 L 30.77941,1485.8923 C 11.08092,1505.4202 2.7343754e-7,1532.0034 2.7343754e-7,1559.7408 2.7343754e-7,1587.4782 11.08092,1614.0614 30.77941,1633.5893 l 582.30277,577.2134 c 522.92912,518.3538 1370.38832,518.3538 1893.31742,0 l 582.3033,-577.2134 c 19.6995,-19.5279 30.7789,-46.1111 30.7789,-73.8485 0,-27.7374 -11.0794,-54.3206 -30.7789,-73.8485 z M 251.68655,1559.7408 759.48978,1056.376 c 441.86422,-437.99595 1158.63792,-437.99595 1600.50212,0 l 507.8049,503.3648 -507.8049,503.3596 c -441.8642,438.0012 -1158.6379,438.0012 -1600.50212,0 z"
     fill="#000000"
     id="path3"
     style="fill:#ffffff;stroke-width:51.9914" />
  <path
     d="m 1559.7409,2807.5335 c 57.4296,0 103.9827,46.5531 103.9827,103.9827 v 103.9828 c 0,57.4296 -46.5531,103.9827 -103.9827,103.9827 -57.4297,0 -103.9827,-46.5531 -103.9827,-103.9827 v -103.9828 c 0,-57.4296 46.553,-103.9827 103.9827,-103.9827 z"
     fill="#000000"
     id="path4"
     style="fill:#ffffff;stroke-width:51.9914" />
  <path
     d="m 2377.6742,351.01759 c 28.7096,-49.73389 11.6721,-113.32869 -38.0629,-142.043 -49.7349,-28.71379 -113.3308,-11.67362 -142.0456,38.06028 l -51.9913,90.05216 c -28.7097,49.73389 -11.6721,113.32973 38.0628,142.04456 49.735,28.71483 113.3308,11.67206 142.0456,-38.06288 z"
     fill="#000000"
     id="path5"
     style="fill:#ffffff;stroke-width:51.9914" />
  <path
     d="m 935.84448,2640.3553 c 49.735,28.7148 66.77252,92.3106 38.0577,142.0456 l -51.9913,90.0542 c -28.7097,49.7298 -92.3055,66.7725 -142.0404,38.0577 -49.735,-28.7148 -66.7726,-92.3107 -38.0629,-142.0404 l 51.9913,-90.0542 c 28.7149,-49.735 92.3107,-66.7725 142.0456,-38.0629 z"
     fill="#000000"
     id="path6"
     style="fill:#ffffff;stroke-width:51.9914" />
  <path
     d="m 2872.4448,921.91084 c 49.7349,-28.7096 66.7777,-92.3055 38.0629,-142.0404 -28.7149,-49.735 -92.3107,-66.7725 -142.0456,-38.0629 l -90.0491,51.9914 c -49.7349,28.7148 -66.7777,92.3106 -38.0628,142.0456 28.7148,49.7349 92.3106,66.77246 142.0456,38.0576 z"
     fill="#000000"
     id="path7"
     style="fill:#ffffff;stroke-width:51.9914" />
  <path
     d="m 479.1212,2183.6372 c 28.71483,49.7349 11.67726,113.3307 -38.05768,142.0456 l -90.05164,51.9913 c -49.73441,28.7097 -113.32921,11.6721 -142.043,-38.0628 -28.71431,-49.735 -11.67414,-113.3308 38.06028,-142.0457 l 90.05164,-51.9913 c 49.7339,-28.7096 113.33077,-11.6721 142.0404,38.0629 z"
     fill="#000000"
     id="path8"
     style="fill:#ffffff;stroke-width:51.9914" />
  <path
     d="m 921.91088,247.03487 c -28.7097,-49.7339 -92.3055,-66.77407 -142.0404,-38.06028 -49.735,28.71431 -66.7726,92.30911 -38.0629,142.043 l 51.9913,90.05112 c 28.7149,49.73494 92.3107,66.77771 142.0456,38.06288 49.735,-28.71483 66.77252,-92.31067 38.0577,-142.04456 z"
     fill="#000000"
     id="path9"
     style="fill:#ffffff;stroke-width:51.9914" />
  <path
     d="m 2183.6372,2640.3553 c 49.735,-28.7096 113.3308,-11.6721 142.0456,38.0629 l 51.9914,90.0542 c 28.7096,49.7297 11.6721,113.3256 -38.0629,142.0404 -49.7349,28.7148 -113.3308,11.6721 -142.0456,-38.0577 l -51.9913,-90.0542 c -28.7097,-49.735 -11.6721,-113.3308 38.0628,-142.0456 z"
     fill="#000000"
     id="path10"
     style="fill:#ffffff;stroke-width:51.9914" />
  <path
     d="m 351.0176,741.80754 c -49.73389,-28.7096 -113.32869,-11.6721 -142.043,38.0629 -28.71379,49.7349 -11.67362,113.3308 38.06028,142.0404 l 90.05216,51.9913 c 49.73389,28.71486 113.32973,11.6773 142.04456,-38.0576 28.71483,-49.735 11.67206,-113.3308 -38.06288,-142.0456 z"
     fill="#000000"
     id="path11"
     style="fill:#ffffff;stroke-width:51.9914" />
  <path
     d="m 2640.3554,2183.6372 c 28.7148,-49.735 92.3106,-66.7725 142.0456,-38.0629 l 90.0542,51.9913 c 49.7297,28.7149 66.7725,92.3107 38.0577,142.0457 -28.7149,49.7349 -92.3107,66.7725 -142.0404,38.0628 l -90.0543,-51.9913 c -49.7349,-28.7149 -66.7725,-92.3107 -38.0628,-142.0456 z"
     fill="#000000"
     id="path12"
     style="fill:#ffffff;stroke-width:51.9914" />
</svg>
