<svg width="396.0000366210937" height="112.69209920919003" viewBox="0 0 369.89473684210526 105.26315789473685" class="looka-1j8o68f"><defs id="SvgjsDefs1581"></defs><g id="SvgjsG1582" featurekey="symbolFeature-0" transform="matrix(1.3157894736842106,0,0,1.3157894736842106,-19.736842105263158,-13.157894736842106)" fill="#111111"><path xmlns="http://www.w3.org/2000/svg" d="M50,10L15,30v40l35,20l34.99-19.994L85,69.99V30L50,10z M50,17.699L74.89,31.92l-6.732,3.848L50,25.397L31.846,35.771  l-6.738-3.851L50,17.699z M64.795,41.546v13.059L53.369,48.08V35.02L64.795,41.546z M46.631,35.02v13.057l-11.423,6.527V41.546  L46.631,35.02z M46.631,80.377L21.735,66.152v-28.46l6.734,3.848v20.761L46.631,72.68V80.377z M38.571,60.377l11.426-6.529  l11.429,6.529L50,66.904L38.571,60.377z M78.265,66.152L53.369,80.377V72.68L71.53,62.305V41.54l6.734-3.848V66.152z"></path></g><g id="SvgjsG1583" featurekey="nameFeature-0" transform="matrix(0.9557195265994579,0,0,0.9557195265994579,106.99747623995634,33.73114254920853)" fill="#111111"><path d="M24.922 1.4059999999999988 c-2.8646 0 -5.5209 0.4686 -7.9688 1.4061 c-2.3959 0.9375 -4.4792 2.2396 -6.2501 3.9063 c-1.7188 1.5625 -3.0729 3.5416 -4.0625 5.9375 c-0.83336 2.0313 -1.3021 4.2448 -1.4063 6.6406 l0 2.3438 l6.875 0 l0 -2.3438 c0.10414 -1.7709 0.39063 -3.2031 0.85938 -4.2969 c0.625 -1.5104 1.4844 -2.8645 2.5781 -4.0624 c1.3021 -1.1979 2.6563 -2.0833 4.0625 -2.6562 c1.6146 -0.625 3.3855 -0.9375 5.3126 -0.9375 l9.8438 0 l0 -5.9375 l-9.8438 0 z M27.891 18.984 l0.000076294 1.4843 l0.078125 0 c-0.10414 1.6666 -0.41664 3.2031 -0.9375 4.6094 c-0.67711 1.6146 -1.5365 2.9427 -2.5781 3.9844 c-1.1459 1.1459 -2.5 2.0313 -4.0625 2.6563 c-1.6146 0.625 -3.3855 0.9375 -5.3126 0.9375 l-9.8438 0 l0 5.9375 l9.8438 0 c2.8646 0 5.5209 -0.46875 7.9688 -1.4063 c2.3959 -0.9375 4.4792 -2.2396 6.2501 -3.9063 c1.8229 -1.8229 3.177 -3.802 4.0624 -5.9374 c0.9375 -2.0834 1.4063 -4.375 1.4063 -6.875 l0 -1.4844 l-6.875 0 z M63.281 16.875 l0 -15.547 l-6.5625 0 l0 37.344 l6.5625 0 l0 -21.797 z M111.953 38.5937 l6.5625 0 l0 -27.422 l-6.5625 9.6094 l0 17.813 z M118.51599999999999 1.4059999999999988 l-7.0313 0 l-11.484 17.813 l-11.406 -17.813 l-7.0313 0 l0 37.188 l6.5625 0 l0 -26.406 l11.719 17.578 l0.23438 0 l10.234 -15.156 c0.052109 -0.20836 2.7865 -4.6094 8.2031 -13.203 z M149.141 1.328000000000003 l0 21.25 c0 3.4375 -0.83336 5.9896 -2.5 7.6563 c-0.88539 0.98961 -2.1094 1.7188 -3.6719 2.1875 l0 6.0938 c1.25 -0.15625 2.3438 -0.41664 3.2813 -0.78125 c1.9271 -0.67711 3.5938 -1.6927 5 -3.0469 c1.4063 -1.5104 2.4479 -3.2552 3.125 -5.2343 c0.78125 -2.0313 1.1719 -4.4271 1.1719 -7.1875 l0 -20.938 l-6.4063 0 z M130.938 1.4059999999999988 l0 21.25 c0 3.3334 0.83336 5.8855 2.5 7.6563 c0.98961 0.98961 2.2136 1.6927 3.672 2.1094 l0 6.1719 c-0.88539 -0.10414 -1.9791 -0.36453 -3.2813 -0.78117 c-1.9791 -0.72914 -3.6198 -1.7708 -4.9219 -3.1249 c-1.4584 -1.3541 -2.5261 -3.0729 -3.2032 -5.1563 c-0.72914 -1.875 -1.0938 -4.2709 -1.0938 -7.1875 l0 -20.938 l6.3281 0 z M167.0313 1.4059999999999988 l6.4063 0 l0 31.25 l19.531 0 l0 5.9375 l-25.938 0 l0 -37.188 z M230.703 38.5937 l7.0313 0 l-13.594 -37.266 l-7.1094 0 l7.8906 22.266 z M201.9531 38.5937 l6.875 0 l8.125 -19.844 l-3.3594 -8.9063 z M274.609 25 c-0.36461 -0.98961 -0.88531 -1.8488 -1.5624 -2.578 c-0.46875 -0.52086 -1.224 -1.1198 -2.2656 -1.797 c-1.1459 -0.57289 -2.1615 -1.0156 -3.0469 -1.3281 c0.625 -0.36461 1.3021 -0.78125 2.0313 -1.25 c0.72914 -0.625 1.276 -1.224 1.6406 -1.7969 c0.46875 -0.625 0.85938 -1.3802 1.1719 -2.2656 c0.3125 -0.9375 0.46875 -1.9531 0.46875 -3.0469 c0 -2.9166 -1.0938 -5.2344 -3.2813 -6.9531 s-5.1563 -2.5781 -8.9063 -2.5781 l-14.453 0 l0 5.7813 l13.672 0 c1.9791 0 3.5938 0.41664 4.8438 1.25 c1.0938 0.83336 1.6406 2.0313 1.6406 3.5938 c0 1.7709 -0.625 3.0469 -1.875 3.8281 c-1.3021 0.83336 -2.9948 1.25 -5.0782 1.25 l-13.203 0 l0 5.4688 l14.609 0 c2.5 0 4.401 0.44273 5.7031 1.3281 c1.25 0.9375 1.875 2.1875 1.875 3.75 c0 1.6666 -0.625 2.9427 -1.875 3.828 c-1.3021 0.88539 -3.0469 1.3281 -5.2344 1.3281 l-15.078 0 l0 5.7813 l15 0 c2.0313 0 3.9063 -0.23438 5.625 -0.70313 c1.7709 -0.52086 3.2031 -1.1719 4.2969 -1.9531 s2.0313 -1.849 2.8125 -3.2031 c0.625 -1.25 0.9375 -2.7084 0.9375 -4.375 c0 -1.3021 -0.15625 -2.4219 -0.46875 -3.3594 z"></path></g></svg>