<?xml version="1.0" encoding="UTF-8" standalone="no"?>
<svg
   version="1.1"
   x="0px"
   y="0px"
   viewBox="0 0 4853.252 8866.5176"
   xml:space="preserve"
   id="svg5"
   width="4853.252"
   height="8866.5176"
   xmlns="http://www.w3.org/2000/svg"
   xmlns:svg="http://www.w3.org/2000/svg"><defs
     id="defs5" /><g
     id="g3"
     transform="matrix(93.331768,0,0,93.331768,-2239.9624,-233.32937)"
     style="fill:#ffffff"><path
       d="M 66.7,79.9 C 72.4,75.1 76,67.9 76,60 76,47.7 67.4,37.3 55.8,34.6 V 39 c 9.2,2.5 16,11 16,21 C 71.8,72 62,81.8 50,81.8 38,81.7 28.2,72 28.2,60 28.2,50 34.9,41.6 44.1,39 V 34.6 C 32.6,37.3 24,47.6 24,60 c 0,8 3.6,15.1 9.3,19.9 l -6.8,14.6 c -0.3,0.7 -0.3,1.4 0.1,2 0.4,0.6 1.1,1 1.8,1 h 11.2 c 0.9,0 1.6,-0.5 2,-1.3 L 46,85.7 c 1.3,0.2 2.6,0.3 4,0.3 1.4,0 2.7,-0.1 4,-0.3 l 4.4,10.5 c 0.3,0.8 1.1,1.3 2,1.3 h 11.2 c 0.7,0 1.4,-0.4 1.8,-1 0.4,-0.6 0.4,-1.4 0.1,-2 z M 38.2,93.2 h -6.4 l 5,-10.9 c 1.6,0.9 3.2,1.7 5,2.3 z m 23.6,0 -3.6,-8.6 c 1.8,-0.6 3.4,-1.4 5,-2.3 l 5,10.9 z"
       id="path1"
       style="fill:#ffffff" /><path
       d="m 44.2,50.1 v -4.7 c -5.8,2.3 -9.9,8 -9.9,14.6 0,8.7 7.1,15.7 15.7,15.7 8.7,0 15.8,-7.1 15.8,-15.7 0,-6.6 -4.1,-12.3 -9.9,-14.6 v 4.7 c 3.4,2 5.7,5.7 5.7,9.9 0,6.3 -5.2,11.5 -11.5,11.5 -6.3,0 -11.5,-5.1 -11.5,-11.5 -0.1,-4.2 2.2,-7.9 5.6,-9.9 z"
       id="path2"
       style="fill:#ffffff" /><path
       d="m 50,65.4 c 3,0 5.5,-2.4 5.5,-5.5 0,-2.3 -1.4,-4.2 -3.3,-5 V 28.1 c 1.3,0.3 2.5,0.4 3.6,0.4 2.6,0 4.9,-0.6 7.1,-1.1 3.2,-0.8 6.2,-1.6 10.1,-0.5 0.6,0.2 1.3,0 1.8,-0.4 0.5,-0.4 0.8,-1 0.8,-1.7 V 7.7 C 75.6,6.7 74.9,5.9 74,5.6 69,4.3 65.2,5.3 61.8,6.1 c -3.2,0.8 -6,1.5 -9.7,0.5 v -2 c 0,-1.2 -1,-2.1 -2.1,-2.1 -1.1,0 -2.1,1 -2.1,2.1 v 50.3 c -2,0.8 -3.3,2.8 -3.3,5 -0.1,3.1 2.4,5.5 5.4,5.5 z M 62.8,10.2 c 2.7,-0.7 5.3,-1.3 8.5,-0.9 v 12.9 c -3.7,-0.4 -6.8,0.3 -9.6,1 -3.2,0.8 -6,1.5 -9.7,0.5 V 10.9 c 4.3,0.9 7.8,0.1 10.8,-0.7 z"
       id="path3"
       style="fill:#ffffff" /></g></svg>
